<svg width="87" height="10" viewBox="0 0 87 10" fill="none" xmlns="http://www.w3.org/2000/svg">
<path d="M3.91 0.408H7.318L10.906 9H7.93L7.378 7.5H3.802L3.238 9H0.274L3.91 0.408ZM6.862 5.736L5.602 2.364H5.578L4.306 5.736H6.862ZM12.0378 0.408H17.6538C18.7898 0.408 19.6778 0.676 20.3178 1.212C20.9578 1.74 21.2778 2.472 21.2778 3.408C21.2698 4.336 20.9418 5.064 20.2938 5.592C19.6538 6.112 18.7658 6.372 17.6298 6.372H14.9058L14.8938 9H12.0378V0.408ZM16.8978 4.56C17.3778 4.56 17.7458 4.456 18.0018 4.248C18.2658 4.032 18.3978 3.736 18.3978 3.36C18.3978 3 18.2658 2.72 18.0018 2.52C17.7378 2.32 17.3698 2.22 16.8978 2.22H14.8938L14.9058 4.56H16.8978ZM22.6159 0.408H28.2319C29.3679 0.408 30.2559 0.676 30.8959 1.212C31.5359 1.74 31.8559 2.472 31.8559 3.408C31.8479 4.336 31.5199 5.064 30.8719 5.592C30.2319 6.112 29.3439 6.372 28.2079 6.372H25.4839L25.4719 9H22.6159V0.408ZM27.4759 4.56C27.9559 4.56 28.3239 4.456 28.5799 4.248C28.8439 4.032 28.9759 3.736 28.9759 3.36C28.9759 3 28.8439 2.72 28.5799 2.52C28.3159 2.32 27.9479 2.22 27.4759 2.22H25.4719L25.4839 4.56H27.4759ZM40.6164 9.276C39.5284 9.276 38.5524 9.084 37.6884 8.7C36.8244 8.316 36.2284 7.788 35.9004 7.116L37.6164 5.964C37.8964 6.38 38.3284 6.716 38.9124 6.972C39.4964 7.228 40.1124 7.356 40.7604 7.356C41.2724 7.356 41.6804 7.284 41.9844 7.14C42.2964 6.988 42.4524 6.792 42.4524 6.552C42.4524 6.36 42.3284 6.204 42.0804 6.084C41.8324 5.956 41.4364 5.852 40.8924 5.772L39.5604 5.592C38.3604 5.432 37.4884 5.148 36.9444 4.74C36.4004 4.324 36.1284 3.744 36.1284 3C36.1284 2.408 36.3124 1.896 36.6804 1.464C37.0564 1.024 37.5764 0.692 38.2404 0.468C38.9124 0.236 39.6804 0.12 40.5444 0.12C41.4724 0.12 42.3044 0.284 43.0404 0.611999C43.7764 0.939999 44.3044 1.38 44.6244 1.932L43.0284 3.084C42.7804 2.756 42.4284 2.496 41.9724 2.304C41.5244 2.104 41.0444 2.004 40.5324 2.004C40.0604 2.012 39.6724 2.088 39.3684 2.232C39.0724 2.376 38.9204 2.56 38.9124 2.784C38.9124 2.968 39.0204 3.116 39.2364 3.228C39.4524 3.332 39.8004 3.416 40.2804 3.48L41.6364 3.66C42.8844 3.812 43.7924 4.1 44.3604 4.524C44.9364 4.94 45.2244 5.528 45.2244 6.288C45.2244 6.896 45.0324 7.428 44.6484 7.884C44.2724 8.332 43.7364 8.676 43.0404 8.916C42.3444 9.156 41.5364 9.276 40.6164 9.276ZM48.5243 2.616H45.6443V0.408H54.2723V2.616H51.3923V9H48.5243V2.616ZM60.5882 9.3C59.4842 9.3 58.5082 9.112 57.6602 8.736C56.8202 8.352 56.1682 7.812 55.7042 7.116C55.2482 6.42 55.0202 5.616 55.0202 4.704C55.0202 3.792 55.2482 2.988 55.7042 2.292C56.1682 1.596 56.8202 1.06 57.6602 0.684C58.5082 0.299999 59.4842 0.107999 60.5882 0.107999C61.6922 0.107999 62.6642 0.299999 63.5042 0.684C64.3442 1.06 64.9922 1.596 65.4482 2.292C65.9122 2.988 66.1442 3.792 66.1442 4.704C66.1442 5.616 65.9122 6.42 65.4482 7.116C64.9922 7.812 64.3442 8.352 63.5042 8.736C62.6642 9.112 61.6922 9.3 60.5882 9.3ZM60.5882 7.092C61.1242 7.092 61.5922 6.992 61.9922 6.792C62.4002 6.592 62.7162 6.312 62.9402 5.952C63.1642 5.592 63.2762 5.176 63.2762 4.704C63.2762 4.232 63.1642 3.816 62.9402 3.456C62.7162 3.088 62.4002 2.808 61.9922 2.616C61.5922 2.416 61.1242 2.316 60.5882 2.316C60.0522 2.316 59.5802 2.416 59.1722 2.616C58.7642 2.808 58.4482 3.088 58.2242 3.456C58.0002 3.816 57.8882 4.232 57.8882 4.704C57.8882 5.176 58.0002 5.592 58.2242 5.952C58.4482 6.312 58.7642 6.592 59.1722 6.792C59.5802 6.992 60.0522 7.092 60.5882 7.092ZM75.5758 9.216C75.0558 9.216 74.6158 9.084 74.2558 8.82C73.8958 8.556 73.6118 8.204 73.4038 7.764L72.9838 6.816C72.8638 6.576 72.7038 6.388 72.5038 6.252C72.3038 6.116 72.0838 6.048 71.8438 6.048H70.4878V9H67.6198V0.408H73.4758C74.5878 0.408 75.4518 0.648 76.0678 1.128C76.6918 1.608 77.0038 2.28 77.0038 3.144C77.0038 3.752 76.8118 4.268 76.4278 4.692C76.0438 5.108 75.5038 5.396 74.8078 5.556V5.568C75.1358 5.68 75.3958 5.944 75.5878 6.36L75.9958 7.188C76.1318 7.452 76.3278 7.584 76.5838 7.584C76.6798 7.584 76.7798 7.56 76.8838 7.512C76.9958 7.464 77.0878 7.4 77.1598 7.32L77.6398 8.544C77.4078 8.744 77.0998 8.904 76.7158 9.024C76.3398 9.152 75.9598 9.216 75.5758 9.216ZM72.8038 4.32C73.2198 4.32 73.5438 4.232 73.7758 4.056C74.0158 3.872 74.1358 3.62 74.1358 3.3C74.1358 2.98 74.0198 2.728 73.7878 2.544C73.5558 2.36 73.2318 2.268 72.8158 2.268H70.4878V4.32H72.8038ZM78.7839 0.408H86.3799V2.4H81.5559V3.768H85.8999V5.484H81.5559V7.008H86.4999V9H78.7839V0.408Z" fill="white"/>
</svg>
