<svg width="109" height="10" viewBox="0 0 109 10" fill="none" xmlns="http://www.w3.org/2000/svg">
<path d="M5.58105 9.228C4.62905 9.228 3.78505 9.044 3.04905 8.676C2.31305 8.3 1.74105 7.776 1.33305 7.104C0.933047 6.432 0.733047 5.66 0.733047 4.788C0.733047 3.876 0.957047 3.068 1.40505 2.364C1.85305 1.66 2.48105 1.116 3.28905 0.732C4.09705 0.34 5.02905 0.144 6.08505 0.144C6.86105 0.144 7.57705 0.264 8.23305 0.504C8.88905 0.744 9.42905 1.08 9.85305 1.512C10.285 1.944 10.565 2.44 10.693 3L8.02905 3.48C7.92505 3.136 7.68905 2.856 7.32105 2.64C6.95305 2.424 6.53305 2.316 6.06105 2.316C5.58105 2.316 5.15305 2.42 4.77705 2.628C4.40105 2.828 4.10905 3.112 3.90105 3.48C3.70105 3.848 3.60105 4.272 3.60105 4.752C3.60105 5.224 3.71705 5.644 3.94905 6.012C4.18905 6.38 4.52105 6.668 4.94505 6.876C5.37705 7.076 5.86905 7.176 6.42105 7.176C6.86105 7.176 7.26105 7.108 7.62105 6.972C7.98105 6.836 8.26905 6.648 8.48505 6.408C8.70905 6.168 8.83305 5.896 8.85705 5.592H4.99305V4.044H11.629V9H9.46905L9.27705 7.524H9.26505C8.94505 8.052 8.45305 8.468 7.78905 8.772C7.12505 9.076 6.38905 9.228 5.58105 9.228ZM18.4964 9.3C17.3924 9.3 16.4164 9.112 15.5684 8.736C14.7284 8.352 14.0764 7.812 13.6124 7.116C13.1564 6.42 12.9284 5.616 12.9284 4.704C12.9284 3.792 13.1564 2.988 13.6124 2.292C14.0764 1.596 14.7284 1.06 15.5684 0.684C16.4164 0.299999 17.3924 0.107999 18.4964 0.107999C19.6004 0.107999 20.5724 0.299999 21.4124 0.684C22.2524 1.06 22.9004 1.596 23.3564 2.292C23.8204 2.988 24.0524 3.792 24.0524 4.704C24.0524 5.616 23.8204 6.42 23.3564 7.116C22.9004 7.812 22.2524 8.352 21.4124 8.736C20.5724 9.112 19.6004 9.3 18.4964 9.3ZM18.4964 7.092C19.0324 7.092 19.5004 6.992 19.9004 6.792C20.3084 6.592 20.6244 6.312 20.8484 5.952C21.0724 5.592 21.1844 5.176 21.1844 4.704C21.1844 4.232 21.0724 3.816 20.8484 3.456C20.6244 3.088 20.3084 2.808 19.9004 2.616C19.5004 2.416 19.0324 2.316 18.4964 2.316C17.9604 2.316 17.4884 2.416 17.0804 2.616C16.6724 2.808 16.3564 3.088 16.1324 3.456C15.9084 3.816 15.7964 4.232 15.7964 4.704C15.7964 5.176 15.9084 5.592 16.1324 5.952C16.3564 6.312 16.6724 6.592 17.0804 6.792C17.4884 6.992 17.9604 7.092 18.4964 7.092ZM30.844 9.3C29.74 9.3 28.764 9.112 27.916 8.736C27.076 8.352 26.424 7.812 25.96 7.116C25.504 6.42 25.276 5.616 25.276 4.704C25.276 3.792 25.504 2.988 25.96 2.292C26.424 1.596 27.076 1.06 27.916 0.684C28.764 0.299999 29.74 0.107999 30.844 0.107999C31.948 0.107999 32.92 0.299999 33.76 0.684C34.6 1.06 35.248 1.596 35.704 2.292C36.168 2.988 36.4 3.792 36.4 4.704C36.4 5.616 36.168 6.42 35.704 7.116C35.248 7.812 34.6 8.352 33.76 8.736C32.92 9.112 31.948 9.3 30.844 9.3ZM30.844 7.092C31.38 7.092 31.848 6.992 32.248 6.792C32.656 6.592 32.972 6.312 33.196 5.952C33.42 5.592 33.532 5.176 33.532 4.704C33.532 4.232 33.42 3.816 33.196 3.456C32.972 3.088 32.656 2.808 32.248 2.616C31.848 2.416 31.38 2.316 30.844 2.316C30.308 2.316 29.836 2.416 29.428 2.616C29.02 2.808 28.704 3.088 28.48 3.456C28.256 3.816 28.144 4.232 28.144 4.704C28.144 5.176 28.256 5.592 28.48 5.952C28.704 6.312 29.02 6.592 29.428 6.792C29.836 6.992 30.308 7.092 30.844 7.092ZM42.4717 9.228C41.5197 9.228 40.6757 9.044 39.9397 8.676C39.2037 8.3 38.6317 7.776 38.2237 7.104C37.8237 6.432 37.6237 5.66 37.6237 4.788C37.6237 3.876 37.8477 3.068 38.2957 2.364C38.7437 1.66 39.3717 1.116 40.1797 0.732C40.9877 0.34 41.9197 0.144 42.9757 0.144C43.7517 0.144 44.4677 0.264 45.1237 0.504C45.7797 0.744 46.3197 1.08 46.7437 1.512C47.1757 1.944 47.4557 2.44 47.5837 3L44.9197 3.48C44.8157 3.136 44.5797 2.856 44.2117 2.64C43.8437 2.424 43.4237 2.316 42.9517 2.316C42.4717 2.316 42.0437 2.42 41.6677 2.628C41.2917 2.828 40.9997 3.112 40.7917 3.48C40.5917 3.848 40.4917 4.272 40.4917 4.752C40.4917 5.224 40.6077 5.644 40.8397 6.012C41.0797 6.38 41.4117 6.668 41.8357 6.876C42.2677 7.076 42.7597 7.176 43.3117 7.176C43.7517 7.176 44.1517 7.108 44.5117 6.972C44.8717 6.836 45.1597 6.648 45.3757 6.408C45.5997 6.168 45.7237 5.896 45.7477 5.592H41.8837V4.044H48.5197V9H46.3597L46.1677 7.524H46.1557C45.8357 8.052 45.3437 8.468 44.6797 8.772C44.0157 9.076 43.2797 9.228 42.4717 9.228ZM50.071 0.408H52.939V6.744H57.127V9H50.071V0.408ZM58.446 0.408H66.042V2.4H61.218V3.768H65.562V5.484H61.218V7.008H66.162V9H58.446V0.408ZM70.5905 0.408H76.2065C77.3425 0.408 78.2305 0.676 78.8705 1.212C79.5105 1.74 79.8305 2.472 79.8305 3.408C79.8225 4.336 79.4945 5.064 78.8465 5.592C78.2065 6.112 77.3185 6.372 76.1825 6.372H73.4585L73.4465 9H70.5905V0.408ZM75.4505 4.56C75.9305 4.56 76.2985 4.456 76.5545 4.248C76.8185 4.032 76.9505 3.736 76.9505 3.36C76.9505 3 76.8185 2.72 76.5545 2.52C76.2905 2.32 75.9225 2.22 75.4505 2.22H73.4465L73.4585 4.56H75.4505ZM81.1686 0.408H84.0366V6.744H88.2246V9H81.1686V0.408ZM92.5916 0.408H95.9996L99.5876 9H96.6116L96.0596 7.5H92.4836L91.9196 9H88.9556L92.5916 0.408ZM95.5436 5.736L94.2836 2.364H94.2596L92.9876 5.736H95.5436ZM102.243 6.072L98.6546 0.408H101.667L103.671 3.936H103.683L105.567 0.408H108.615L105.099 6.072V9H102.243V6.072Z" fill="white"/>
</svg>
